<svg height="682pt" viewBox="-139 -21 682 682.66535" width="682pt" xmlns="http://www.w3.org/2000/svg"><path d="m207.375 59.214844c0-10.945313-5.546875-19.8125-12.382812-19.8125-6.835938 0-12.375 8.867187-12.375 19.8125 0 10.9375 5.539062 19.804687 12.375 19.804687 6.835937 0 12.382812-8.867187 12.382812-19.804687zm0 0"/><path d="m109.207031 406.785156c-5.179687 0-9.375 4.195313-9.375 9.375v15.527344c0 5.175781 4.195313 9.375 9.375 9.375 5.175781 0 9.375-4.199219 9.375-9.375v-15.527344c0-5.179687-4.199219-9.375-9.375-9.375zm0 0"/><path d="m280.785156 406.785156c-5.179687 0-9.375 4.195313-9.375 9.375v15.527344c0 5.175781 4.195313 9.375 9.375 9.375 5.175782 0 9.375-4.199219 9.375-9.375v-15.527344c0-5.179687-4.199218-9.375-9.375-9.375zm0 0"/><path d="m222.335938 423.550781c-3.894532-3.410156-9.816407-3.015625-13.226563.886719-3.421875 3.917969-8.570313 6.164062-14.117187 6.164062-5.546876 0-10.691407-2.246093-14.113282-6.164062-3.410156-3.902344-9.328125-4.296875-13.230468-.886719-3.894532 3.402344-4.296876 9.324219-.886719 13.226563 6.988281 7.988281 17.273437 12.574218 28.230469 12.574218 10.957031 0 21.25-4.585937 28.234374-12.574218 3.40625-3.898438 3.011719-9.824219-.890624-13.226563zm0 0"/><path d="m397.488281 270.902344c0-20.238282-14.257812-37.195313-33.257812-41.386719-2.0625-36.527344-17.683594-69.253906-44.511719-92.851563-19.109375-16.804687-43.078125-28.394531-69.617188-33.949218v-73.421875c0-16.152344-13.140624-29.292969-29.292968-29.292969h-51.628906c-16.152344 0-29.292969 13.140625-29.292969 29.292969v73.402343c-20.300781 4.238282-39.105469 12.019532-55.542969 23.121094-4.289062 2.894532-5.417969 8.71875-2.523438 13.011719 2.902344 4.292969 8.726563 5.425781 13.019532 2.523437 16.261718-10.980468 35.273437-18.265624 55.914062-21.585937 8.613282-1.386719 17.359375-2.070313 26.082032-2.070313h36.316406c8.160156 0 16.261718.667969 24.332031 1.820313 26.890625 4.039063 51.121094 14.761719 69.847656 31.230469 22.84375 20.089844 35.894531 46.828125 38.070313 77.769531h-300.804688c1.734375-23.945313 10.136719-45.816406 24.570313-63.707031 3.253906-4.027344 2.625-9.929688-1.40625-13.183594-4.03125-3.246094-9.929688-2.617188-13.183594 1.410156-17.335937 21.496094-27.195313 47.792969-28.800781 76.476563-19.011719 4.183593-33.277344 21.148437-33.277344 41.390625 0 20.152344 14.136719 37.050781 33.011719 41.328125v244.050781c-18.875 4.285156-33.011719 21.183594-33.011719 41.328125 0 23.375 19.011719 42.390625 42.386719 42.390625h320.214843c23.375 0 42.386719-19.015625 42.386719-42.390625 0-20.144531-14.136719-37.042969-33.011719-41.328125v-244.050781c18.875-4.28125 33.011719-21.175781 33.011719-41.328125zm-220.652343-171.960938c-6.070313 0-12.15625.304688-18.199219.898438v-70.546875c0-5.816407 4.730469-10.542969 10.542969-10.542969h51.628906c5.816406 0 10.542968 4.726562 10.542968 10.542969v70.546875c-.097656-.011719-12.226562-.898438-18.199218-.898438zm-165.585938 171.960938c0-13.03125 10.605469-23.636719 23.636719-23.636719h320.214843c13.035157 0 23.636719 10.605469 23.636719 23.636719s-10.601562 23.636718-23.636719 23.636718h-320.214843c-13.03125 0-23.636719-10.605468-23.636719-23.636718zm367.488281 326.707031c0 13.035156-10.601562 23.640625-23.636719 23.640625h-320.214843c-13.03125 0-23.636719-10.605469-23.636719-23.640625 0-13.03125 10.605469-23.636719 23.636719-23.636719h227.234375c5.183594 0 9.375-4.195312 9.375-9.375 0-5.175781-4.191406-9.375-9.375-9.375h-217.859375v-241.933594h301.464843v241.933594h-46.105468c-5.175782 0-9.375 4.199219-9.375 9.375 0 5.175782 4.199218 9.375 9.375 9.375h55.480468c13.035157 0 23.636719 10.605469 23.636719 23.636719zm0 0"/></svg>