<svg id="Capa_1" enable-background="new 0 0 512 512" height="512" viewBox="0 0 512 512" width="512" xmlns="http://www.w3.org/2000/svg"><path d="m497 137.357h-21.396v-77.357c0-8.284-6.716-15-15-15h-409.198c-8.284 0-15 6.716-15 15v77.357h-21.406c-8.284 0-15 6.716-15 15v274.42c0 8.284 6.716 15 15 15h45.015v10.223c0 8.284 6.716 15 15 15s15-6.716 15-15v-10.223h331.979v10.223c0 8.284 6.716 15 15 15s15-6.716 15-15v-10.223h45.006c8.284 0 15-6.716 15-15v-274.42c0-8.284-6.716-15-15-15zm-430.594-62.357h379.198v62.357h-54.602v-15.168c0-8.284-6.716-15-15-15s-15 6.716-15 15v15.168h-29.999v-15.168c0-8.284-6.716-15-15-15s-15 6.716-15 15v15.168h-29.998v-15.168c0-8.284-6.716-15-15-15s-15 6.716-15 15v15.168h-29.999v-15.168c0-8.284-6.716-15-15-15s-15 6.716-15 15v15.168h-29.998v-15.168c0-8.284-6.716-15-15-15s-15 6.716-15 15v15.168h-54.602zm415.594 336.777h-180.995v-26.937c0-8.284-6.716-15-15-15s-15 6.716-15 15v26.937h-29.998v-26.937c0-8.284-6.716-15-15-15s-15 6.716-15 15v26.937h-181.007v-244.42h452z"/><path d="m100.023 226.445c-38.599 0-70 31.541-70 70.31s31.401 70.31 70 70.31 70-31.54 70-70.31-31.401-70.31-70-70.31zm0 110.619c-22.056 0-40-18.083-40-40.31s17.944-40.31 40-40.31 40 18.083 40 40.31-17.944 40.31-40 40.31z"/><path d="m341.992 296.754c0 38.769 31.401 70.31 70 70.31s70-31.54 70-70.31c0-38.769-31.401-70.31-70-70.31s-70 31.541-70 70.31zm110 0c0 22.227-17.944 40.31-40 40.31s-40-18.083-40-40.31 17.944-40.31 40-40.31c22.056.001 40 18.084 40 40.31z"/><path d="m302.711 255.15h-93.397c-8.284 0-15 6.716-15 15v61.168c0 8.284 6.716 15 15 15h93.397c8.284 0 15-6.716 15-15v-61.168c0-8.284-6.716-15-15-15zm-15 61.168h-63.397v-31.168h63.397z"/><path d="m327.704 197.694h-143.396c-8.284 0-15 6.716-15 15s6.716 15 15 15h143.396c8.284 0 15-6.716 15-15s-6.716-15-15-15z"/></svg>