<svg height="511pt" viewBox="-25 0 511 511.99944" width="511pt" xmlns="http://www.w3.org/2000/svg"><path d="m75.71875 426.335938 50.910156-25.453126c-.511718 1.976563-.777344 4.011719-.777344 6.117188v60c0 31.085938 52.738282 45 105.003907 45 52.261719 0 105-13.914062 105-45v-60c0-2.105469-.265625-4.140625-.777344-6.117188l50.914063 25.453126 75.214843-112.824219-66.019531-49.515625c.4375-4.617188.667969-9.246094.667969-13.867188v-100.132812c0-88.648438-91.21875-157.734375-179.6875-149.296875-76.59375 7.304687-150.316407 75.585937-150.316407 155.097656v94.332031c0 4.621094.230469 9.253906.664063 13.871094l-66.015625 49.511719zm155.132812-34.335938c36.988282 0 68.679688 10.707031 75 16.957031v25.019531c-19.996093-8.140624-47.558593-11.980468-75-11.980468-27.4375 0-55 3.839844-75 11.980468v-25.019531c6.324219-6.25 38.015626-16.957031 75-16.957031zm0 90c-41.457031 0-66.59375-9.457031-73.636718-15 7.042968-5.542969 32.179687-15 73.636718-15 41.460938 0 66.597657 9.457031 73.640626 15-7.042969 5.542969-32.179688 15-73.640626 15zm189.652344-161.515625-44.785156 67.175781-37.699219-18.847656c22.453125-17.101562 40.789063-42.203125 50.484375-72.328125zm-54.648437-155.488281c0 24.394531-13.738281 45-30 45-16.265625 0-30.003907-20.605469-30.003907-45 0-24.390625 13.738282-45 30.003907-45 16.261719 0 30 20.609375 30 45zm-18.601563-73.621094c-3.730468-.894531-7.546875-1.378906-11.398437-1.378906-31.011719 0-60.003907 30.539062-60.003907 75 0 44.90625 29.308594 75 60.003907 75 10.621093 0 20.972656-3.523438 30-9.972656v20.105468c0 37.054688-17.757813 73.484375-46.34375 95.078125-9.535157 7.203125-17.695313 15.9375-24.367188 26.046875-14.53125-4.476562-32.121093-7.550781-49.292969-8.722656v-331.671875c41.460938 4.699219 79.761719 28.371094 101.402344 60.515625zm-131.402344-60.46875v331.625c-17.167968 1.171875-34.757812 4.246094-49.292968 8.722656-6.671875-10.105468-14.828125-18.84375-24.363282-26.046875-28.585937-21.589843-46.34375-58.023437-46.34375-95.078125v-20.105468c9.027344 6.449218 19.378907 9.976562 30 9.976562 31.011719 0 60-30.539062 60-75 0-44.90625-29.308593-75.003906-60-75.003906-2.660156 0-5.304687.246094-7.914062.679687 22.085938-31.332031 58.378906-54.972656 97.914062-59.769531zm-90 89.089844c16.261719 0 30 20.609375 30 45 0 24.394531-13.738281 45-30 45-16.261718 0-30-20.605469-30-45 0-24.390625 13.738282-45 30-45zm-2.167968 248.816406-37.695313 18.847656-44.785156-67.175781 31.996094-24c9.699219 30.125 28.039062 55.230469 50.484375 72.328125zm0 0"/></svg>