<svg height="512pt" viewBox="0 0 512.00917 512" width="512pt" xmlns="http://www.w3.org/2000/svg"><path d="m484.570312 45.71875h27.429688v36.570312h-27.429688zm0 0"/><path d="m411.429688 45.71875h54.855468v36.570312h-54.855468zm0 0"/><path d="m448 100.574219h64v36.574219h-64zm0 0"/><path d="m484.570312 155.433594h27.429688v36.570312h-27.429688zm0 0"/><path d="m365.714844 45.71875h27.429687v36.570312h-27.429687zm0 0"/><path d="m411.429688 155.433594h54.855468v36.570312h-54.855468zm0 0"/><path d="m507.429688.00390625h-59.429688v27.42968775h64v-22.859375c0-2.523438-2.046875-4.57031275-4.570312-4.57031275zm0 0"/><path d="m365.714844 4.574219v22.859375h64v-27.42968775h-59.429688c-2.523437 0-4.570312 2.04687475-4.570312 4.57031275zm0 0"/><path d="m365.714844 100.574219h64v36.574219h-64zm0 0"/><path d="m484.570312 374.863281h27.4375v36.570313h-27.4375zm0 0"/><path d="m411.429688 374.863281h54.855468v36.570313h-54.855468zm0 0"/><path d="m448 429.71875h64.007812v36.570312h-64.007812zm0 0"/><path d="m448 210.289062h64v36.574219h-64zm0 0"/><path d="m448 320.003906h64.007812v36.570313h-64.007812zm0 0"/><path d="m484.570312 265.148438h27.4375v36.570312h-27.4375zm0 0"/><path d="m411.429688 265.148438h54.855468v36.570312h-54.855468zm0 0"/><path d="m484.570312 484.574219v27.429687h22.859376c2.523437 0 4.570312-2.046875 4.570312-4.570312v-22.859375zm0 0"/><path d="m365.714844 429.71875h64v36.570312h-64zm0 0"/><path d="m365.714844 155.433594h27.429687v36.570312h-27.429687zm0 0"/><path d="m365.714844 374.863281h27.429687v36.570313h-27.429687zm0 0"/><path d="m365.714844 507.433594c0 2.523437 2.046875 4.570312 4.570312 4.570312h22.859375v-27.429687h-27.429687zm0 0"/><path d="m411.429688 484.574219h54.855468v27.429687h-54.855468zm0 0"/><path d="m365.714844 210.289062h64v36.574219h-64zm0 0"/><path d="m365.714844 265.148438h27.429687v36.570312h-27.429687zm0 0"/><path d="m365.714844 320.003906h64v36.570313h-64zm0 0"/><path d="m187.429688 219.433594h-173.714844c-7.574219 0-13.714844 6.140625-13.714844 13.714844 0 7.574218 6.140625 13.714843 13.714844 13.714843h173.714844c7.574218 0 13.714843-6.140625 13.714843-13.714843 0-7.574219-6.140625-13.714844-13.714843-13.714844zm0 0"/><path d="m18.285156 265.148438v201.140624h164.570313v-201.140624zm82.285156 173.714843c-34.308593.9375-62.917968-26.039062-64-60.34375 0-47.207031 56.75-83.0625 59.171876-84.5625 2.957031-1.839843 6.699218-1.839843 9.65625 0 2.421874 1.5 59.171874 37.355469 59.171874 84.5625-1.078124 34.304688-29.691406 61.28125-64 60.34375zm0 0"/><path d="m86.855469 182.863281h27.429687c2.523438 0 4.570313 2.046875 4.570313 4.570313v9.140625c0 2.527343-2.046875 4.574219-4.570313 4.574219h-27.429687c-2.523438 0-4.570313-2.046876-4.570313-4.574219v-9.140625c0-2.523438 2.046875-4.570313 4.570313-4.570313zm0 0"/><path d="m187.429688 484.574219h-173.714844c-7.574219 0-13.714844 6.140625-13.714844 13.714843 0 7.574219 6.140625 13.714844 13.714844 13.714844h173.714844c7.574218 0 13.714843-6.140625 13.714843-13.714844 0-7.574218-6.140625-13.714843-13.714843-13.714843zm0 0"/><path d="m128 160.003906v-9.140625c0-2.527343-2.046875-4.574219-4.570312-4.574219h-13.714844c-5.050782 0-9.144532-4.09375-9.144532-9.140624 0-5.050782 4.09375-9.144532 9.144532-9.144532h13.714844c2.523437 0 4.570312-2.046875 4.570312-4.570312v-9.144532c0-2.523437-2.046875-4.570312-4.570312-4.570312h-45.714844c-2.523438 0-4.570313 2.046875-4.570313 4.570312v45.714844c0 2.527344 2.046875 4.570313 4.570313 4.570313h45.714844c2.523437 0 4.570312-2.042969 4.570312-4.570313zm0 0"/><path d="m100.570312 312.773438c-12.644531 9.058593-45.714843 35.65625-45.714843 65.746093 1.078125 24.203125 21.503906 42.996094 45.714843 42.054688 24.210938.941406 44.636719-17.851563 45.714844-42.054688 0-30.171875-33.050781-56.6875-45.714844-65.746093zm0 0"/><path d="m320 18.289062c-5.050781 0-9.144531 4.09375-9.144531 9.144532 0 81.214844-144.832031 82.285156-146.285157 82.285156-5.046874 0-9.140624 4.09375-9.140624 9.144531 0 5.046875 4.09375 9.140625 9.140624 9.140625 6.722657 0 164.574219-1.140625 164.574219-100.570312 0-5.050782-4.09375-9.144532-9.144531-9.144532zm0 0"/><path d="m164.570312 146.289062c-5.046874 0-9.140624 4.09375-9.140624 9.144532 0 5.050781 4.09375 9.140625 9.140624 9.140625 1.464844 0 146.285157.917969 146.285157 82.289062 0 5.046875 4.09375 9.140625 9.144531 9.140625s9.144531-4.09375 9.144531-9.140625c0-99.429687-157.851562-100.574219-164.574219-100.574219zm0 0"/></svg>